#N canvas 480 125 643 473 10;
#X obj 132 40 notein;
#X obj 132 73 stripnote;
#X obj 132 170 list prepend send;
#X obj 132 192 list trim;
#X obj 132 139 oscformat trigger;
#X msg 344 304 disconnect;
#X obj 129 334 netsend -u -b;
#X obj 261 236 loadbang;
#X text 413 264 ip of mac mini goes here;
#X msg 260 266 connect 10.0.1.10 13000;
#X connect 0 0 1 0;
#X connect 0 1 1 1;
#X connect 1 0 4 0;
#X connect 2 0 3 0;
#X connect 3 0 6 0;
#X connect 4 0 2 0;
#X connect 5 0 6 0;
#X connect 7 0 9 0;
#X connect 9 0 6 0;
