#N canvas 1129 117 1077 940 10;
#X obj 104 193 elooper~;
#X obj 863 61 audio_tables_loader;
#X obj 863 36 bng 15 250 50 0 empty empty empty 17 7 0 10 -262144 -1
-1;
#X obj 863 90 bng 15 250 50 0 empty empty empty 17 7 0 10 -262144 -1
-1;
#X obj 863 8 loadbang;
#X obj 98 154 bng 15 250 50 0 empty empty empty 17 7 0 10 -262144 -1
-1;
#X obj 102 231 gain~;
#X obj 250 186 elooper~;
#X obj 244 147 bng 15 250 50 0 empty empty empty 17 7 0 10 -262144
-1 -1;
#X msg 295 161 backing_beatR;
#X obj 248 225 gain~;
#X obj 95 402 dac~;
#X msg 149 168 backing_beat;
#X obj 80 672 elooper~;
#X obj 81 700 gain~;
#X msg 56 610 oneshot;
#X obj 75 907 dac~;
#X obj 124 608 loadbang;
#X obj 55 516 oscparse;
#X obj 56 538 list trim;
#X obj 57 562 route trigger;
#X obj 57 586 route 0;
#X msg 125 647 vox_2;
#X msg 686 154 disconnect;
#X obj 471 184 netsend -u -b;
#X obj 603 86 loadbang;
#X msg 603 116 connect localhost 12000;
#X obj 16 60 netreceive -u -b;
#X msg 16 33 listen 12000;
#X obj 16 6 loadbang;
#X obj 15 87 s osc_from_podiums;
#X obj 55 490 r osc_from_podiums;
#X connect 0 0 6 0;
#X connect 1 0 3 0;
#X connect 2 0 1 0;
#X connect 4 0 2 0;
#X connect 5 0 0 0;
#X connect 6 0 11 0;
#X connect 6 0 11 1;
#X connect 8 0 7 0;
#X connect 9 0 7 2;
#X connect 12 0 0 2;
#X connect 13 0 14 0;
#X connect 14 0 16 0;
#X connect 14 0 16 1;
#X connect 15 0 13 0;
#X connect 17 0 22 0;
#X connect 18 0 19 0;
#X connect 19 0 20 0;
#X connect 20 0 21 0;
#X connect 21 0 15 0;
#X connect 22 0 13 2;
#X connect 23 0 24 0;
#X connect 25 0 26 0;
#X connect 26 0 24 0;
#X connect 27 0 30 0;
#X connect 28 0 27 0;
#X connect 29 0 28 0;
#X connect 31 0 18 0;
