#N canvas 484 23 1077 940 10;
#X obj 98 221 elooper~;
#X obj 863 61 audio_tables_loader;
#X obj 863 36 bng 15 250 50 0 empty empty empty 17 7 0 10 -262144 -1
-1;
#X obj 863 90 bng 15 250 50 0 empty empty empty 17 7 0 10 -262144 -1
-1;
#X obj 863 8 loadbang;
#X obj 92 182 bng 15 250 50 0 empty empty empty 17 7 0 10 -262144 -1
-1;
#X obj 250 186 elooper~;
#X obj 244 147 bng 15 250 50 0 empty empty empty 17 7 0 10 -262144
-1 -1;
#X msg 295 161 backing_beatR;
#X obj 248 225 gain~;
#X obj 92 466 dac~;
#X msg 143 196 backing_beat;
#X obj 80 672 elooper~;
#X obj 81 700 gain~;
#X msg 56 610 oneshot;
#X obj 75 907 dac~;
#X obj 124 608 loadbang;
#X obj 57 586 route 0;
#X msg 686 154 disconnect;
#X obj 471 184 netsend -u -b;
#X obj 603 86 loadbang;
#X obj 16 60 netreceive -u -b;
#X obj 16 6 loadbang;
#X obj 16 155 s osc_from_podiums;
#X obj 271 511 r osc_from_podiums;
#X obj 435 34 r osc_from_podiums;
#X obj 96 259 gain~;
#X obj 16 83 oscparse;
#X obj 16 107 list trim;
#X obj 16 131 route trigger;
#X obj 57 556 r osc_from_podiums;
#X obj 466 126 list prepend send;
#X obj 466 151 list trim;
#X obj 466 102 oscformat trigger;
#X msg 16 33 listen 13000;
#X msg 444 69 0;
#X msg 603 117 connect localhost 12000;
#X obj 4 484 notein;
#X obj 1 515 stripnote;
#X obj 269 549 print;
#X msg 125 647 Trigger_04_voiceL;
#X connect 0 0 26 0;
#X connect 1 0 3 0;
#X connect 2 0 1 0;
#X connect 4 0 2 0;
#X connect 5 0 0 0;
#X connect 7 0 6 0;
#X connect 8 0 6 2;
#X connect 11 0 0 2;
#X connect 12 0 13 0;
#X connect 13 0 15 0;
#X connect 13 0 15 1;
#X connect 14 0 12 0;
#X connect 16 0 40 0;
#X connect 17 0 14 0;
#X connect 18 0 19 0;
#X connect 20 0 36 0;
#X connect 21 0 27 0;
#X connect 22 0 34 0;
#X connect 24 0 39 0;
#X connect 25 0 33 0;
#X connect 26 0 10 0;
#X connect 26 0 10 1;
#X connect 27 0 28 0;
#X connect 28 0 29 0;
#X connect 29 0 23 0;
#X connect 30 0 17 0;
#X connect 31 0 32 0;
#X connect 32 0 19 0;
#X connect 33 0 31 0;
#X connect 34 0 21 0;
#X connect 35 0 33 0;
#X connect 36 0 19 0;
#X connect 37 0 38 0;
#X connect 37 1 38 1;
#X connect 38 0 14 0;
#X connect 40 0 12 2;
