#N canvas 379 29 1498 1017 10;
#X obj 98 221 elooper~;
#X obj 863 61 audio_tables_loader;
#X obj 863 36 bng 15 250 50 0 empty empty empty 17 7 0 10 -262144 -1
-1;
#X obj 863 90 bng 15 250 50 0 empty empty empty 17 7 0 10 -262144 -1
-1;
#X obj 863 8 loadbang;
#X obj 92 182 bng 15 250 50 0 empty empty empty 17 7 0 10 -262144 -1
-1;
#X obj 228 221 elooper~;
#X obj 222 182 bng 15 250 50 0 empty empty empty 17 7 0 10 -262144
-1 -1;
#X obj 226 260 gain~;
#X obj 96 456 dac~;
#X obj 80 672 elooper~;
#X msg 56 610 oneshot;
#X obj 136 913 dac~;
#X obj 124 608 loadbang;
#X msg 686 154 disconnect;
#X obj 471 184 netsend -u -b;
#X obj 603 86 loadbang;
#X obj 16 60 netreceive -u -b;
#X obj 16 6 loadbang;
#X obj 16 155 s osc_from_podiums;
#X obj 435 34 r osc_from_podiums;
#X obj 96 259 gain~;
#X obj 16 83 oscparse;
#X obj 16 107 list trim;
#X obj 16 131 route trigger;
#X obj 57 556 r osc_from_podiums;
#X obj 466 126 list prepend send;
#X obj 466 151 list trim;
#X obj 466 102 oscformat trigger;
#X msg 16 33 listen 13000;
#X obj 56 584 route 1;
#X obj 81 696 gain~;
#X msg 143 196 beat_03L;
#X msg 273 196 beat_03R;
#X obj 223 460 dac~;
#X obj 861 129 s go;
#X obj 213 144 r go;
#X obj 279 144 loadbang;
#X msg 364 197 0, f 4;
#X msg 138 669 0;
#X obj 231 670 elooper~;
#X msg 207 608 oneshot;
#X obj 275 606 loadbang;
#X obj 208 554 r osc_from_podiums;
#X obj 207 582 route 1;
#X obj 232 694 gain~;
#X msg 289 667 0;
#X msg 125 647 Trigger_01_pianoL;
#X msg 276 645 Trigger_01_pianoR;
#X obj 468 665 elooper~;
#X msg 444 603 oneshot;
#X obj 524 906 dac~;
#X obj 512 601 loadbang;
#X obj 445 549 r osc_from_podiums;
#X obj 469 689 gain~;
#X msg 526 662 0;
#X obj 619 663 elooper~;
#X msg 595 601 oneshot;
#X obj 663 599 loadbang;
#X obj 596 547 r osc_from_podiums;
#X obj 620 687 gain~;
#X msg 677 660 0;
#X msg 513 640 Trigger_02_guitarL;
#X msg 664 638 Trigger_02_guitarR;
#X obj 823 660 elooper~;
#X msg 799 598 oneshot;
#X obj 879 901 dac~;
#X obj 867 596 loadbang;
#X obj 800 544 r osc_from_podiums;
#X obj 824 684 gain~;
#X msg 881 657 0;
#X obj 974 658 elooper~;
#X msg 950 596 oneshot;
#X obj 1018 594 loadbang;
#X obj 951 542 r osc_from_podiums;
#X obj 975 682 gain~;
#X msg 1032 655 0;
#X msg 868 635 Trigger_03_hornsL;
#X msg 1019 633 Trigger_03_hornsR;
#X obj 1192 659 elooper~;
#X msg 1168 597 oneshot;
#X obj 1248 900 dac~;
#X obj 1236 595 loadbang;
#X obj 1169 543 r osc_from_podiums;
#X obj 1193 683 gain~;
#X msg 1250 656 0;
#X obj 1343 657 elooper~;
#X msg 1319 595 oneshot;
#X obj 1387 593 loadbang;
#X obj 1320 541 r osc_from_podiums;
#X obj 1344 681 gain~;
#X msg 1401 654 0;
#X obj 1547 654 elooper~;
#X msg 1523 592 oneshot;
#X obj 1603 895 dac~;
#X obj 1591 590 loadbang;
#X obj 1524 538 r osc_from_podiums;
#X obj 1548 678 gain~;
#X msg 1605 651 0;
#X obj 1698 652 elooper~;
#X msg 1674 590 oneshot;
#X obj 1742 588 loadbang;
#X obj 1675 536 r osc_from_podiums;
#X obj 1699 676 gain~;
#X msg 1756 649 0;
#X msg 1237 634 Trigger_04_voiceL;
#X msg 1388 632 Trigger_04_voiceR;
#X msg 1592 629 Trigger_05L;
#X msg 1744 627 Trigger_05R;
#X obj 1674 564 route 5;
#X obj 1523 566 route 5;
#X obj 1319 569 route 4;
#X obj 1168 571 route 4;
#X obj 950 570 route 3;
#X obj 799 572 route 3;
#X obj 595 575 route 2;
#X obj 444 577 route 2;
#X msg 603 117 connect 10.0.1.20 12000;
#X msg 443 70 1;
#X connect 0 0 21 0;
#X connect 1 0 3 0;
#X connect 2 0 1 0;
#X connect 3 0 35 0;
#X connect 4 0 2 0;
#X connect 5 0 0 0;
#X connect 6 0 8 0;
#X connect 7 0 6 0;
#X connect 8 0 34 1;
#X connect 10 0 31 0;
#X connect 11 0 10 0;
#X connect 13 0 47 0;
#X connect 13 0 39 0;
#X connect 14 0 15 0;
#X connect 16 0 117 0;
#X connect 17 0 22 0;
#X connect 18 0 29 0;
#X connect 20 0 118 0;
#X connect 21 0 9 0;
#X connect 22 0 23 0;
#X connect 23 0 24 0;
#X connect 24 0 19 0;
#X connect 25 0 30 0;
#X connect 26 0 27 0;
#X connect 27 0 15 0;
#X connect 28 0 26 0;
#X connect 29 0 17 0;
#X connect 30 0 11 0;
#X connect 31 0 12 0;
#X connect 32 0 0 2;
#X connect 33 0 6 2;
#X connect 36 0 5 0;
#X connect 36 0 7 0;
#X connect 37 0 33 0;
#X connect 37 0 32 0;
#X connect 37 0 38 0;
#X connect 38 0 8 1;
#X connect 38 0 21 1;
#X connect 39 0 31 1;
#X connect 40 0 45 0;
#X connect 41 0 40 0;
#X connect 42 0 48 0;
#X connect 42 0 46 0;
#X connect 43 0 44 0;
#X connect 44 0 41 0;
#X connect 45 0 12 1;
#X connect 46 0 45 1;
#X connect 47 0 10 2;
#X connect 48 0 40 2;
#X connect 49 0 54 0;
#X connect 50 0 49 0;
#X connect 52 0 62 0;
#X connect 52 0 55 0;
#X connect 53 0 116 0;
#X connect 54 0 51 0;
#X connect 55 0 54 1;
#X connect 56 0 60 0;
#X connect 57 0 56 0;
#X connect 58 0 63 0;
#X connect 58 0 61 0;
#X connect 59 0 115 0;
#X connect 60 0 51 1;
#X connect 61 0 60 1;
#X connect 62 0 49 2;
#X connect 63 0 56 2;
#X connect 64 0 69 0;
#X connect 65 0 64 0;
#X connect 67 0 77 0;
#X connect 67 0 70 0;
#X connect 68 0 114 0;
#X connect 69 0 66 0;
#X connect 70 0 69 1;
#X connect 71 0 75 0;
#X connect 72 0 71 0;
#X connect 73 0 78 0;
#X connect 73 0 76 0;
#X connect 74 0 113 0;
#X connect 75 0 66 1;
#X connect 76 0 75 1;
#X connect 77 0 64 2;
#X connect 78 0 71 2;
#X connect 79 0 84 0;
#X connect 80 0 79 0;
#X connect 82 0 105 0;
#X connect 82 0 85 0;
#X connect 83 0 112 0;
#X connect 84 0 81 0;
#X connect 85 0 84 1;
#X connect 86 0 90 0;
#X connect 87 0 86 0;
#X connect 88 0 106 0;
#X connect 88 0 91 0;
#X connect 89 0 111 0;
#X connect 90 0 81 1;
#X connect 91 0 90 1;
#X connect 92 0 97 0;
#X connect 93 0 92 0;
#X connect 95 0 107 0;
#X connect 95 0 98 0;
#X connect 96 0 110 0;
#X connect 97 0 94 0;
#X connect 98 0 97 1;
#X connect 99 0 103 0;
#X connect 100 0 99 0;
#X connect 101 0 108 0;
#X connect 101 0 104 0;
#X connect 102 0 109 0;
#X connect 103 0 94 1;
#X connect 104 0 103 1;
#X connect 105 0 79 2;
#X connect 106 0 86 2;
#X connect 107 0 92 2;
#X connect 108 0 99 2;
#X connect 109 0 100 0;
#X connect 110 0 93 0;
#X connect 111 0 87 0;
#X connect 112 0 80 0;
#X connect 113 0 72 0;
#X connect 114 0 65 0;
#X connect 115 0 57 0;
#X connect 116 0 50 0;
#X connect 117 0 15 0;
#X connect 118 0 28 0;
